<?xml version="1.0" encoding="UTF-8"?>
<svg width="63px" height="63px" viewBox="0 0 63 63" version="1.1" xmlns="http://www.w3.org/2000/svg" xmlns:xlink="http://www.w3.org/1999/xlink">
    <title>servo-symbol-color</title>
    <g id="Page-1" stroke="none" stroke-width="1" fill="none" fill-rule="evenodd">
        <g id="servo-symbol-color" fill-rule="nonzero">
            <g id="o" transform="translate(0.250000, 0.033145)">
                <path d="M13.1783906,38.5991252 L29.109375,50.183634 L29.109375,61.875 C16.7646573,61.1549744 6.36338199,53.1906766 2.08711216,42.167394 L13.1783906,38.5991252 Z" id="Path" fill="#1192E8"></path>
                <path d="M48.6964688,38.5991252 L59.7878878,42.167394 C55.5116342,53.1906348 45.1104217,61.154914 32.7658964,61.8749918 L32.765625,50.183634 L48.6964688,38.5991252 Z" id="Path" fill="#1192E8"></path>
                <path d="M11.3428898,7.00113559 L18.1828125,16.454878 L12.1324219,35.0917388 L0.969061353,38.6832775 C0.377009381,36.3740039 0.044392566,33.9606351 0.00414474109,31.4761332 L9.05941988e-14,30.9640854 C9.05941988e-14,21.3054241 4.41853563,12.679654 11.3428898,7.00113559 Z" id="Path" fill="#009D9A"></path>
                <path d="M50.5321102,7.00113559 C57.4564644,12.679654 61.875,21.3054241 61.875,30.9640854 C61.875,33.6291968 61.5385851,36.2156668 60.9059386,38.6832775 L49.7424375,35.0917388 L43.6920469,16.454878 L50.5321102,7.00113559 Z" id="Path" fill="#009D9A"></path>
                <path d="M30.9375,-4.4408921e-15 C37.060888,-4.4408921e-15 42.76877,1.78052128 47.5725001,4.8524979 L40.7084062,14.3396087 L21.1664531,14.3396087 L14.3024999,4.8524979 C18.9721898,1.86623975 24.4962778,0.100370573 30.4258919,0.00414830278 L30.9375,-4.4408921e-15 Z" id="Path" fill="#42BE65"></path>
            </g>
        </g>
    </g>
</svg>